:SAMPLES-PER-SECOND 30
:FULLY-SPECIFIED
:DEGREES
250
root  -9.49826 34.8953 -17.1022 -171.107 -0.352219 179.658
RightUpLeg  -5.77223 -16.3559 4.28132
RightLeg  0.0494297 0.660511 -0.0419444
RightFoot  4.08049 0.0263918 0.188075
RightToes  -19.4135 -0.0782133 -0.17209
Spine  -3.41406 1.25129 -1.54162
Spine1  -6.87477 2.48335 -2.4055
HEad  -62.4324 -2.06262 11.5321
LeftShoulder1  -1.94126e-019 -3.10601e-018 -2.51263e-017
LeftArm  -8.92803 25.0103 -76.613
LeftForeArm  34.9804 -15.5849 -2.65383
LeftHand  -0.300963 -0.685852 5.88739
RightShoulder  -4.96962e-017 0 -2.36833e-017
RightArm  -70.7124 8.98066 7.02306
RightForeArm  169.198 43.8146 170.154
RightHand  -0.361192 -1.26213 -10.0656
LeftUpLeg  -6.17406 -2.81955 -2.16627
LeftLeg  1.82355 14.6609 -0.470728
LeftFoot  4.78653 -0.0451689 1.39997
LeftToes  -10.6209 1.48347e-006 1.01831e-007
251
root  -9.5218 34.891 -17.1114 -171.153 -0.328766 179.679
RightUpLeg  -5.77876 -15.5685 4.25225
RightLeg  0.191716 -0.16778 0.0103
RightFoot  3.97798 0.029651 0.136093
RightToes  -18.7053 -0.0741021 -0.166331
Spine  -3.39508 1.20575 -1.55432
Spine1  -6.83536 2.39107 -2.41837
HEad  -62.4419 -1.95244 11.5686
LeftShoulder1  -1.94126e-019 -3.10601e-018 -2.51263e-017
LeftArm  -9.06692 25.0398 -76.5476
LeftForeArm  35.0987 -15.4545 -2.63042
LeftHand  -0.304379 -0.806934 5.89523
RightShoulder  -4.96962e-017 0 -2.36833e-017
RightArm  -70.117 9.68248 8.43686
RightForeArm  169.13 43.6946 170.187
RightHand  -0.361653 -1.22854 -10.0009
LeftUpLeg  -6.08581 -2.73488 -2.19155
LeftLeg  1.77261 14.5932 -0.481441
LeftFoot  4.81098 -0.0454347 1.40285
LeftToes  -10.7333 1.48347e-006 1.01831e-007
252
root  -9.53572 34.8859 -17.116 -171.182 -0.245697 179.714
RightUpLeg  -5.84435 -15.1096 4.25817
RightLeg  0.38914 -0.571837 0.0330519
RightFoot  3.85679 0.0306099 0.115365
RightToes  -18.0443 -0.070827 -0.160915
Spine  -3.39054 1.11949 -1.57464
Spine1  -6.81955 2.20935 -2.43413
HEad  -62.4282 -1.85127 11.7301
LeftShoulder1  -1.94126e-019 -3.10601e-018 -2.51263e-017
LeftArm  -9.22926 25.0982 -76.496
LeftForeArm  35.0526 -15.2228 -2.59087
LeftHand  -0.306582 -0.680888 5.9712
RightShoulder  -4.96962e-017 0 -2.36833e-017
RightArm  -68.7487 10.7587 11.0276
RightForeArm  169.093 43.3731 170.284
RightHand  -0.347343 -1.42286 -10.0482
LeftUpLeg  -5.99213 -2.33908 -2.19635
LeftLeg  1.66852 14.3025 -0.497785
LeftFoot  4.84001 -0.0447689 1.38912
LeftToes  -10.8051 1.48347e-006 1.01831e-007
253
root  -9.53768 34.8696 -17.1134 -171.182 -0.0450287 179.744
RightUpLeg  -6.07708 -14.714 4.27987
RightLeg  0.828425 -0.798709 0.0401028
RightFoot  3.62563 0.0304184 0.109372
RightToes  -17.7372 -0.0695757 -0.159165
Spine  -3.40865 0.993312 -1.59513
Spine1  -6.83576 1.92864 -2.43741
HEad  -62.3577 -1.67445 11.8211
LeftShoulder1  -1.94126e-019 -3.10601e-018 -2.51263e-017
LeftArm  -9.61477 25.2016 -76.4747
LeftForeArm  35.2738 -14.9462 -2.55404
LeftHand  -0.312083 -0.711758 6.04886
RightShoulder  -4.96962e-017 0 -2.36833e-017
RightArm  -65.9352 12.0214 15.0164
RightForeArm  169.6 42.7988 170.493
RightHand  -0.342883 -1.55124 -10.2344
LeftUpLeg  -6.127 -1.9656 -2.19196
LeftLeg  1.97646 14.1385 -0.416948
LeftFoot  4.6755 -0.0420176 1.34068
LeftToes  -10.9412 1.48347e-006 1.01831e-007
254
root  -9.52233 34.8562 -17.1093 -171.184 0.243469 179.781
RightUpLeg  -6.24878 -14.2826 4.32725
RightLeg  1.14128 -0.971168 0.0434808
RightFoot  3.4527 0.0299945 0.104901
RightToes  -17.4362 -0.0691401 -0.158713
Spine  -3.40839 0.852111 -1.59085
Spine1  -6.80893 1.61171 -2.37612
HEad  -62.2853 -1.42718 11.7876
LeftShoulder1  -1.94126e-019 -3.10601e-018 -2.51263e-017
LeftArm  -10.2042 25.2488 -76.5646
LeftForeArm  35.4995 -14.5371 -2.49385
LeftHand  -0.316006 -0.749337 6.08965
RightShoulder  -4.96962e-017 0 -2.36833e-017
RightArm  -61.1387 12.9648 20.6174
RightForeArm  170.605 41.9333 170.816
RightHand  -0.356465 -1.42257 -10.3161
LeftUpLeg  -6.25343 -1.66441 -2.15561
LeftLeg  2.28556 14.1244 -0.3411
LeftFoot  4.5128 -0.0401742 1.30389
LeftToes  -11.1664 1.48347e-006 1.01831e-007
255
root  -9.49358 34.8425 -17.1015 -171.24 0.599808 179.821
RightUpLeg  -6.36457 -14.1068 4.37664
RightLeg  1.43501 -0.781117 0.0310933
RightFoot  3.3306 0.0282266 0.117745
RightToes  -17.3498 -0.0693309 -0.159207
Spine  -3.40503 0.632268 -1.57301
Spine1  -6.74869 1.0941 -2.2602
HEad  -62.2404 -1.00005 11.6995
LeftShoulder1  -1.94126e-019 -3.10601e-018 -2.51263e-017
LeftArm  -10.8205 25.3933 -76.7073
LeftForeArm  35.6406 -14.1899 -2.43616
LeftHand  -0.323449 -0.79286 6.19096
RightShoulder  -4.96962e-017 0 -2.36833e-017
RightArm  -53.3096 13.0299 28.382
RightForeArm  172.466 41.2744 171.12
RightHand  -0.378355 -1.23562 -10.4862
LeftUpLeg  -6.43924 -1.2723 -2.10932
LeftLeg  2.82556 14.1072 -0.209101
LeftFoot  4.2314 -0.0365383 1.23658
LeftToes  -11.3218 1.48347e-006 1.01831e-007
256
root  -9.45236 34.8361 -17.08 -171.349 0.980911 179.846
RightUpLeg  -6.38211 -14.0549 4.42251
RightLeg  1.58271 -0.42945 0.0161946
RightFoot  3.35032 0.0262209 0.132002
RightToes  -17.4255 -0.0699585 -0.160296
Spine  -3.37344 0.348027 -1.50133
Spine1  -6.60785 0.400342 -2.02331
HEad  -62.1905 -0.440467 11.39
LeftShoulder1  -1.94126e-019 -3.10601e-018 -2.51263e-017
LeftArm  -11.4131 25.4709 -77.016
LeftForeArm  35.7261 -13.7598 -2.35718
LeftHand  -0.320482 -0.682817 6.21064
RightShoulder  -4.96962e-017 0 -2.36833e-017
RightArm  -42.7147 11.4793 37.7486
RightForeArm  175.473 41.8398 171.125
RightHand  -0.42479 -0.78298 -10.674
LeftUpLeg  -6.70195 -1.06748 -2.05405
LeftLeg  3.59341 14.3112 -0.0223448
LeftFoot  3.88301 -0.032744 1.16399
LeftToes  -11.3901 1.48347e-006 1.01831e-007
257
root  -9.40458 34.84 -17.0494 -171.519 1.30487 179.859
RightUpLeg  -6.17911 -14.0307 4.45794
RightLeg  1.38294 -0.13874 0.00595556
RightFoot  3.56027 0.0246222 0.138367
RightToes  -17.3935 -0.0708334 -0.161625
Spine  -3.29607 0.107588 -1.37234
Spine1  -6.38995 -0.199099 -1.70109
HEad  -62.0821 0.161785 10.8887
LeftShoulder1  -1.94126e-019 -3.10601e-018 -2.51263e-017
LeftArm  -11.8996 25.3938 -77.4747
LeftForeArm  35.6424 -13.2062 -2.25141
LeftHand  -0.316884 -0.690906 6.15986
RightShoulder  -4.96962e-017 0 -2.36833e-017
RightArm  -31.239 7.50613 47.6492
RightForeArm  177.649 44.7649 170.335
RightHand  -0.464342 -0.371395 -10.7534
LeftUpLeg  -7.07071 -0.87644 -1.98768
LeftLeg  4.66356 14.4816 0.244889
LeftFoot  3.44286 -0.0268964 1.05649
LeftToes  -11.5672 1.48347e-006 1.01831e-007
